# xmcd
#
# Track frame offsets:
# 182
# 12940
# 28052
# 42037
# 53235
# 65495
# 77005
# 88617
# 100475
# 111690
# 126887
# 140650
# 154350
# 167940
# 181455
#
# Disc length: 2601 seconds
#
#
# Revision: 1
# Processed by: cddbd v1.5.1PL0 Copyright (c) Steve Scherf et al.
# Submitted via: FreeRIP 2.91 
#
DISCID=d60a270f
DTITLE=Earl Hines - Jazz and Blues Collection - CD 41
DYEAR=1900
DGENRE=Blues
TTITLE0=Maple Leaf Rag
TTITLE1=Fat Babes
TTITLE2=That's A Plenty
TTITLE3=Sweet Georgia Brown
TTITLE4=Rosetta
TTITLE5=Copenhagen
TTITLE6=Angry
TTITLE7=Wolverine Blues
TTITLE8=Rock And Rye (Sweet Georgia Brown)
TTITLE9=Cavernism
TTITLE10=Disappointed In Love
TTITLE11=Rhythm Lullaby
TTITLE12=Japanese Sandman
TTITLE13=Blue
TTITLE14=Julia
EXTD=
EXTT0=
EXTT1=
EXTT2=
EXTT3=
EXTT4=
EXTT5=
EXTT6=
EXTT7=
EXTT8=
EXTT9=
EXTT10=
EXTT11=
EXTT12=
EXTT13=
EXTT14=
PLAYORDER=
